<?xml version="1.0" encoding="iso-8859-1"?>
<!-- Uploaded to: SVG Repo, www.svgrepo.com, Generator: SVG Repo Mixer Tools -->
<svg height="800px" width="800px" version="1.1" id="Layer_1" xmlns="http://www.w3.org/2000/svg" xmlns:xlink="http://www.w3.org/1999/xlink" 
	 viewBox="0 0 512.001 512.001" xml:space="preserve">
<path style="fill:#FF9B46;" d="M394.023,224.849c0.353,0.043,0.715,0.113,1.06,0.207c51.215,13.224,59.853,60.439,57.275,83.551
	c-0.396,3.5-2.828,6.431-6.189,7.457c-9.189,2.81-4.086,22.405-4.034,22.577c0.672,2.327,0.362,4.828-0.871,6.922
	c-1.224,2.087-3.25,3.586-5.612,4.129c-1.034,0.242-2.146,0.707-3.224,2.465c-4.233,6.922-2.629,24.198-0.138,34.258
	c0.871,3.509-0.491,7.198-3.431,9.302c-2.94,2.112-6.871,2.216-9.913,0.25c-10.879-6.991-24-5.827-30.508,2.716
	c-9.06,11.88,12.319,41.818,24.086,54.465c3.319,3.561,3.129,9.146-0.439,12.474c-1.698,1.587-3.862,2.37-6.017,2.37
	c-2.362,0-4.715-0.94-6.457-2.802c-2.91-3.122-19.473-21.448-27.073-41.336h-18.815c-5.903,0-11.415-2.951-14.69-7.862L256,291.444
	v-84.797c0.324,0.109,0.664,0.214,1.146,0.28L394.023,224.849z"/>
<path style="fill:#FFDE9B;" d="M256,253.971c8.859,4.694,16,9.886,16,9.886s58.874,95.448,32.439,100.244L256,291.443V253.971z"/>
<path style="fill:#E17837;" d="M399.61,465.191c-2.91-3.122-19.473-21.448-27.073-41.336h-18.815c-5.903,0-11.415-2.951-14.69-7.862
	l-5.355-8.032c15.595-20.153,25.586-44.646,19.424-72.381c-15.97-71.862-9.122-104.292,15.838-114.016l25.084,3.285
	c0.353,0.043,0.715,0.113,1.06,0.207c51.215,13.224,59.853,60.439,57.275,83.551c-0.396,3.5-2.828,6.431-6.189,7.457
	c-9.189,2.81-4.086,22.405-4.034,22.577c0.672,2.327,0.362,4.828-0.871,6.922c-1.224,2.087-3.25,3.586-5.612,4.129
	c-1.034,0.242-2.146,0.707-3.224,2.465c-4.233,6.922-2.629,24.198-0.138,34.258c0.871,3.509-0.491,7.198-3.431,9.302
	c-2.94,2.112-6.871,2.216-9.913,0.25c-10.879-6.991-24-5.827-30.508,2.716c-9.06,11.88,12.319,41.818,24.086,54.465
	c3.319,3.561,3.129,9.146-0.439,12.474c-1.698,1.587-3.862,2.37-6.017,2.37C403.705,467.993,401.351,467.054,399.61,465.191z"/>
<path style="fill:#FFDE9B;" d="M353.347,219.523c-27.103,4.097-38.188,35.027-97.347,22.094v-34.971
	c0.324,0.109,0.664,0.214,1.146,0.28L353.347,219.523z"/>
<path style="fill:#FFC864;" d="M495.012,44.019c9.978-0.338,18.081,8.094,16.867,17.652c-1.513,11.903-6.036,29.782-18.191,53.223
	c-18.308,35.31-18.308,61.792-18.308,97.102c0,17.655-9.154,26.482-27.463,26.482c-27.463,0-183.089-17.655-183.089-17.655v-26.482
	C264.828,194.34,365.732,48.388,495.012,44.019z"/>
<path style="fill:#FF9B46;" d="M356.288,100.226c38.304-29.255,86.168-54.431,138.724-56.207
	c9.978-0.338,18.081,8.094,16.867,17.652c-1.513,11.903-6.036,29.782-18.191,53.223c-18.308,35.31-18.308,61.792-18.308,97.102
	c0,17.655-9.154,26.482-27.463,26.482c-10.209,0-38.137-2.441-69.191-5.507C370.206,151.306,311.172,159.582,356.288,100.226z"/>
<path style="fill:#E17837;" d="M428.861,58.387l0.012-0.111c1.404-0.551,2.861-0.974,4.277-1.498c2.6-0.96,5.212-1.885,7.85-2.751
	c2.275-0.748,4.556-1.465,6.859-2.14c2.66-0.777,5.349-1.461,8.046-2.134c2.196-0.548,4.372-1.149,6.591-1.624
	c0.06-0.013,0.117-0.031,0.178-0.044L462.67,48.1c10.551-2.249,21.334-3.709,32.342-4.081c9.978-0.338,18.081,8.094,16.867,17.652
	c-1.513,11.903-6.036,29.782-18.191,53.223c-18.308,35.31-18.308,61.792-18.308,97.102c0,17.655-9.154,26.482-27.463,26.482
	c-6.671,0-20.973-1.053-38.704-2.631l10.017-90.465l-24.196,11.442c3.31-35.31-24.827-35.31-24.282-67.099
	C388.524,77.47,408.05,66.529,428.861,58.387z"/>
<g>
	<path style="fill:#695046;" d="M411.952,106.065c10.093-15.726,9.931-34.574,4.74-42.599c7.528-3.424,15.252-6.472,23.142-9.111
		c13.129,9.781,16.181,28.396,1.941,54.38c-38.65,70.526,3.648,91.859-12.879,128.745c-7.981-0.594-17.535-1.414-28.05-2.387
		C420.044,206.111,364.504,179.996,411.952,106.065z"/>
	<path style="fill:#695046;" d="M447.722,193.789c-8.827-26.482,4.552-59.973,20.138-87.723c15.081-26.85,9.931-48.919,2.997-59.586
		c7.927-1.335,15.983-2.185,24.156-2.461c9.978-0.338,18.081,8.094,16.867,17.652c-1.513,11.903-6.036,29.782-18.191,53.223
		c-18.308,35.31-18.308,61.792-18.308,97.102c0,17.149-8.713,25.895-25.987,26.388C452.412,229.65,453.649,211.568,447.722,193.789z
		"/>
	<path style="fill:#695046;" d="M434.989,301.9c-10.817,6.773-13.609,20.853-11.478,34.307c-2.852,2.087-4.822,4.584-6.135,6.728
		c-5.384,8.805-5.726,21.527-4.826,31.664c-2.787-0.559-5.61-0.843-8.436-0.843c-5.157,0-10.014,1.134-14.52,2.946
		c6.405-16.852,12.215-44.871-1.181-76.431c-12.697-29.915-5.432-50.945-1.749-58.58l4.505,0.59
		C431.055,253.023,434.932,288.9,434.989,301.9z"/>
	<circle style="fill:#695046;" cx="360.823" cy="400.681" r="9.931"/>
</g>
<g>
	<circle style="fill:#E17837;" cx="409.65" cy="306.061" r="7.448"/>
	<circle style="fill:#E17837;" cx="402.754" cy="272.042" r="9.195"/>
</g>
<path style="fill:#FF9B46;" d="M117.976,224.849c-0.353,0.043-0.715,0.113-1.06,0.207C65.7,238.28,57.063,285.495,59.64,308.608
	c0.396,3.5,2.828,6.431,6.189,7.457c9.189,2.81,4.086,22.405,4.034,22.577c-0.672,2.327-0.362,4.828,0.871,6.922
	c1.224,2.087,3.25,3.586,5.612,4.129c1.035,0.242,2.146,0.707,3.224,2.465c4.233,6.922,2.629,24.198,0.138,34.258
	c-0.871,3.509,0.491,7.198,3.431,9.302c2.94,2.112,6.871,2.216,9.913,0.25c10.879-6.991,24-5.827,30.508,2.716
	c9.06,11.88-12.319,41.818-24.086,54.465c-3.319,3.561-3.129,9.146,0.439,12.474c1.698,1.587,3.862,2.37,6.017,2.37
	c2.362,0,4.715-0.94,6.457-2.802c2.91-3.122,19.473-21.448,27.073-41.336h18.815c5.903,0,11.415-2.951,14.69-7.862l83.034-124.55
	v-84.797c-0.324,0.109-0.664,0.214-1.146,0.28L117.976,224.849z"/>
<path style="fill:#FFDE9B;" d="M256,253.971c-8.859,4.694-16,9.886-16,9.886s-58.874,95.448-32.439,100.244L256,291.443V253.971z"/>
<path style="fill:#E17837;" d="M112.389,465.191c2.91-3.122,19.473-21.448,27.073-41.336h18.815c5.903,0,11.415-2.951,14.69-7.862
	l5.355-8.032c-15.595-20.153-25.586-44.646-19.424-72.381c15.97-71.862,9.122-104.292-15.838-114.016l-25.084,3.285
	c-0.353,0.043-0.715,0.113-1.06,0.207C65.7,238.28,57.063,285.495,59.64,308.608c0.396,3.5,2.828,6.431,6.189,7.457
	c9.189,2.81,4.086,22.405,4.034,22.577c-0.672,2.327-0.362,4.828,0.871,6.922c1.224,2.087,3.25,3.586,5.612,4.129
	c1.035,0.242,2.146,0.707,3.224,2.465c4.233,6.922,2.629,24.198,0.138,34.258c-0.871,3.509,0.491,7.198,3.431,9.302
	c2.94,2.112,6.871,2.216,9.913,0.25c10.879-6.991,24-5.827,30.508,2.716c9.06,11.88-12.319,41.818-24.086,54.465
	c-3.319,3.561-3.129,9.146,0.439,12.474c1.698,1.587,3.862,2.37,6.017,2.37C108.294,467.993,110.648,467.054,112.389,465.191z"/>
<path style="fill:#FFDE9B;" d="M158.652,219.523c27.103,4.097,38.188,35.027,97.347,22.094v-34.971
	c-0.324,0.109-0.664,0.214-1.146,0.28L158.652,219.523z"/>
<path style="fill:#FFC864;" d="M16.987,44.019C7.009,43.682-1.094,52.113,0.121,61.67c1.513,11.903,6.036,29.782,18.191,53.223
	c18.308,35.31,18.308,61.792,18.308,97.102c0,17.655,9.154,26.482,27.463,26.482c27.463,0,183.089-17.655,183.089-17.655V194.34
	C247.173,194.34,146.267,48.388,16.987,44.019z"/>
<path style="fill:#FF9B46;" d="M155.711,100.226C117.407,70.971,69.543,45.795,16.987,44.019C7.009,43.682-1.094,52.113,0.121,61.67
	c1.513,11.903,6.036,29.782,18.191,53.223c18.308,35.31,18.308,61.792,18.308,97.102c0,17.655,9.154,26.482,27.463,26.482
	c10.209,0,38.137-2.441,69.191-5.507C141.793,151.306,200.828,159.582,155.711,100.226z"/>
<path style="fill:#E17837;" d="M83.138,58.387l-0.012-0.111c-1.404-0.551-2.861-0.974-4.277-1.498c-2.6-0.96-5.212-1.885-7.85-2.751
	c-2.275-0.748-4.556-1.465-6.859-2.14c-2.66-0.777-5.349-1.461-8.046-2.134c-2.196-0.548-4.372-1.149-6.591-1.624
	c-0.06-0.013-0.117-0.031-0.178-0.044l0.002,0.013c-10.551-2.249-21.334-3.709-32.342-4.081C7.009,43.682-1.094,52.113,0.121,61.67
	c1.513,11.903,6.036,29.782,18.191,53.223c18.308,35.31,18.308,61.792,18.308,97.102c0,17.655,9.154,26.482,27.463,26.482
	c6.671,0,20.973-1.053,38.704-2.631l-10.017-90.465l24.196,11.442c-3.31-35.31,24.827-35.31,24.282-67.099
	C123.475,77.47,103.949,66.529,83.138,58.387z"/>
<g>
	<path style="fill:#7C5546;" d="M247.173,181.099c-1.689,0-3.301-0.974-4.034-2.621l-35.31-79.447
		c-0.991-2.229,0.018-4.836,2.241-5.827c2.225-0.983,4.836,0.004,5.827,2.241l35.31,79.447c0.991,2.225-0.018,4.836-2.241,5.827
		C248.379,180.979,247.775,181.099,247.173,181.099z"/>
	<path style="fill:#7C5546;" d="M264.828,181.099c-0.604,0-1.207-0.12-1.793-0.38c-2.225-0.991-3.233-3.604-2.241-5.827
		l35.31-79.447c0.991-2.237,3.595-3.224,5.827-2.241c2.225,0.991,3.233,3.599,2.241,5.827l-35.31,79.447
		C268.129,180.126,266.517,181.099,264.828,181.099z"/>
</g>
<circle style="fill:#6F463C;" cx="255.997" cy="185.511" r="17.655"/>
<path style="fill:#7C5546;" d="M256,335.58c-4.879,0-8.827-3.948-8.827-8.827v-52.965c0-4.879,3.948-8.827,8.827-8.827
	s8.827,3.948,8.827,8.827v52.965C264.828,331.632,260.878,335.58,256,335.58z"/>
<path style="fill:#9B6450;" d="M256,291.443L256,291.443c-14.626,0-26.482-11.856-26.482-26.482v-44.137
	c0-14.626,11.856-26.482,26.482-26.482l0,0c14.626,0,26.482,11.856,26.482,26.482v44.137
	C282.483,279.586,270.625,291.443,256,291.443z"/>
<g>
	<path style="fill:#695046;" d="M100.047,106.065c-10.093-15.726-9.931-34.574-4.74-42.599c-7.528-3.424-15.252-6.472-23.142-9.111
		c-13.129,9.781-16.181,28.396-1.941,54.38c38.651,70.526-3.648,91.859,12.879,128.745c7.981-0.594,17.535-1.414,28.05-2.387
		C91.956,206.111,147.495,179.996,100.047,106.065z"/>
	<path style="fill:#695046;" d="M64.278,193.789c8.827-26.482-4.552-59.973-20.138-87.723c-15.081-26.85-9.931-48.919-2.997-59.586
		c-7.927-1.335-15.983-2.185-24.156-2.461C7.009,43.682-1.094,52.113,0.121,61.67c1.513,11.903,6.036,29.782,18.191,53.223
		c18.308,35.31,18.308,61.792,18.308,97.102c0,17.148,8.713,25.895,25.987,26.388C59.588,229.65,58.351,211.568,64.278,193.789z"/>
	<path style="fill:#695046;" d="M77.011,301.9c10.817,6.773,13.609,20.853,11.478,34.307c2.852,2.087,4.822,4.584,6.135,6.728
		c5.384,8.805,5.726,21.527,4.826,31.664c2.787-0.559,5.61-0.843,8.436-0.843c5.157,0,10.014,1.134,14.52,2.946
		c-6.405-16.852-12.215-44.871,1.181-76.431c12.697-29.915,5.432-50.945,1.749-58.58l-4.505,0.59
		C80.944,253.023,77.067,288.9,77.011,301.9z"/>
	<circle style="fill:#695046;" cx="151.17" cy="400.681" r="9.931"/>
</g>
<g>
	<circle style="fill:#E17837;" cx="102.343" cy="306.061" r="7.448"/>
	<circle style="fill:#E17837;" cx="109.24" cy="272.042" r="9.195"/>
</g>
</svg>