<?xml version="1.0" encoding="UTF-8"?> <svg xmlns="http://www.w3.org/2000/svg" width="1469" height="1469" viewBox="0 0 1469 1469" fill="none"> <g style="mix-blend-mode:multiply" opacity="0.6"> <path fill-rule="evenodd" clip-rule="evenodd" d="M651.098 73.5483C686.858 56.9779 723.578 39.9625 732.219 0H736.781C745.422 39.9625 782.142 56.9779 817.902 73.5483C839.404 83.512 860.559 93.3148 875.053 107.849C888.854 121.687 892.339 137.292 890.793 152.014C896.825 138.493 907.658 126.719 926.539 121.625C946.37 116.274 969.599 118.346 993.21 120.452C1032.48 123.954 1072.8 127.55 1100.29 97.2559L1103.58 99.1525C1091.06 138.075 1114.34 171.143 1137.01 203.346C1150.64 222.71 1164.05 241.76 1169.32 261.583C1174.35 280.463 1169.55 295.72 1160.83 307.698C1172.83 298.996 1188.11 294.203 1207.02 299.219C1226.87 304.485 1245.95 317.876 1265.34 331.488C1297.6 354.124 1330.72 377.369 1369.7 364.859L1371.6 368.144C1341.26 395.597 1344.86 435.857 1348.37 475.065C1350.47 498.639 1352.55 521.834 1347.19 541.634C1342.09 560.488 1330.29 571.304 1316.75 577.327C1331.5 575.782 1347.13 579.261 1360.99 593.042C1375.54 607.515 1385.36 628.638 1395.34 650.107C1411.94 685.812 1428.98 722.476 1469 731.104V737.896C1428.98 746.524 1411.94 783.188 1395.34 818.893C1385.36 840.363 1375.54 861.485 1360.99 875.958C1347.13 889.739 1331.5 893.218 1316.75 891.673C1330.29 897.696 1342.09 908.512 1347.19 927.366C1352.55 947.166 1350.47 970.361 1348.37 993.936C1344.86 1033.14 1341.26 1073.4 1371.6 1100.86L1369.7 1104.14C1330.72 1091.63 1297.6 1114.88 1265.34 1137.51C1245.95 1151.12 1226.87 1164.52 1207.02 1169.78C1188.11 1174.8 1172.83 1170 1160.83 1161.3C1169.55 1173.28 1174.35 1188.54 1169.32 1207.42C1164.05 1227.24 1150.64 1246.29 1137.01 1265.65C1114.34 1297.86 1091.06 1330.92 1103.58 1369.85L1100.29 1371.74C1072.8 1341.45 1032.48 1345.05 993.21 1348.55C969.599 1350.65 946.37 1352.73 926.539 1347.38C907.658 1342.28 896.825 1330.51 890.793 1316.99C892.339 1331.71 888.854 1347.31 875.053 1361.15C860.559 1375.69 839.404 1385.49 817.902 1395.45C782.142 1412.02 745.422 1429.04 736.781 1469H732.219C723.578 1429.04 686.858 1412.02 651.098 1395.45C629.596 1385.49 608.441 1375.69 593.947 1361.15C580.146 1347.31 576.661 1331.71 578.207 1316.99C572.175 1330.51 561.342 1342.28 542.461 1347.38C522.63 1352.73 499.401 1350.65 475.79 1348.55C436.523 1345.05 396.202 1341.45 368.706 1371.74L365.416 1369.85C377.945 1330.92 354.665 1297.86 331.994 1265.65C318.362 1246.29 304.95 1227.24 299.675 1207.42C294.652 1188.54 299.452 1173.28 308.168 1161.3C296.171 1170 280.89 1174.8 261.981 1169.78C242.128 1164.52 223.048 1151.12 203.655 1137.51C171.403 1114.88 138.284 1091.63 99.3014 1104.14L97.4021 1100.86C127.744 1073.4 124.142 1033.14 120.635 993.936C118.525 970.361 116.45 947.166 121.809 927.366C126.912 908.512 138.705 897.696 152.248 891.673C137.503 893.218 121.873 889.739 108.012 875.958C93.4561 861.485 83.6383 840.363 73.6594 818.893C57.0639 783.188 40.0227 746.524 0 737.896V731.104C40.0227 722.476 57.0639 685.812 73.6594 650.107C83.6383 628.638 93.4561 607.515 108.012 593.042C121.873 579.261 137.503 575.782 152.248 577.327C138.705 571.304 126.912 560.488 121.809 541.634C116.45 521.834 118.525 498.639 120.635 475.065C124.142 435.857 127.744 395.597 97.4021 368.144L99.3014 364.859C138.284 377.369 171.403 354.124 203.655 331.488C223.048 317.876 242.128 304.485 261.981 299.219C280.89 294.203 296.171 298.996 308.168 307.698C299.452 295.72 294.652 280.463 299.675 261.583C304.95 241.76 318.362 222.71 331.994 203.346C354.665 171.143 377.945 138.075 365.416 99.1525L368.706 97.2559C396.202 127.55 436.523 123.954 475.79 120.452C499.401 118.346 522.63 116.274 542.461 121.625C561.342 126.719 572.175 138.493 578.207 152.014C576.661 137.292 580.146 121.687 593.947 107.849C608.441 93.3148 629.596 83.512 651.098 73.5483ZM734.5 1327.91C1061.68 1326.11 1326.5 1061.32 1327.7 734.5C1326.5 407.674 1061.68 142.891 734.5 141.087C407.318 142.891 142.502 407.675 141.297 734.5C142.502 1061.33 407.318 1326.11 734.5 1327.91Z" fill="url(#paint0_radial)"></path> </g> <g style="mix-blend-mode:multiply"> <path fill-rule="evenodd" clip-rule="evenodd" d="M801.336 247.105C830.01 242.12 859.454 237.002 873.256 210.148L876.509 211.02C875.035 241.176 897.975 260.332 920.316 278.986C933.749 290.203 946.965 301.238 954.526 314.376C961.725 326.884 961.229 338.681 957.312 348.886C964.199 340.395 974.176 334.067 988.618 334.042C1003.79 334.016 1019.96 339.933 1036.4 345.948C1063.74 355.951 1091.81 366.223 1117.21 349.869L1119.2 351.851C1102.82 377.22 1113.11 405.256 1123.12 432.56C1129.15 448.977 1135.07 465.129 1135.05 480.277C1135.02 494.704 1128.68 504.669 1120.17 511.548C1130.39 507.633 1142.21 507.135 1154.74 514.326C1167.89 521.877 1178.94 535.076 1190.18 548.492C1208.85 570.803 1228.04 593.713 1258.23 592.24L1258.96 594.946C1232.07 608.729 1226.94 638.135 1221.95 666.772C1218.95 683.991 1216 700.932 1208.39 714.031C1201.15 726.504 1190.67 731.965 1179.86 733.673C1190.67 735.389 1201.15 740.858 1208.41 753.338C1216.02 766.443 1218.99 783.386 1222 800.607C1227.02 829.247 1232.17 858.656 1259.06 872.46L1257.77 877.305C1227.57 875.81 1208.41 898.705 1189.74 921.002C1178.52 934.408 1167.48 947.599 1154.33 955.14C1141.81 962.32 1130 961.815 1119.78 957.895C1128.29 964.779 1134.63 974.748 1134.67 989.172C1134.71 1004.32 1128.79 1020.47 1122.78 1036.88C1112.79 1064.18 1102.52 1092.21 1118.92 1117.59L1116.94 1119.57C1091.52 1103.19 1063.45 1113.44 1036.12 1123.43C1019.69 1129.43 1003.52 1135.33 988.351 1135.3C973.905 1135.26 963.921 1128.92 957.028 1120.42C960.955 1130.63 961.463 1142.43 954.271 1154.94C946.72 1168.07 933.513 1179.09 920.088 1190.3C897.762 1208.94 874.836 1228.07 876.334 1258.23L873.624 1258.96C859.802 1232.09 830.354 1226.95 801.676 1221.94C784.432 1218.93 767.466 1215.97 754.343 1208.37C741.849 1201.12 736.373 1190.65 734.654 1179.86C732.943 1190.65 727.475 1201.12 714.986 1208.35C701.869 1215.95 684.906 1218.9 667.664 1221.89C638.99 1226.88 609.545 1232 595.744 1258.85L592.49 1257.98C593.965 1227.82 571.024 1208.67 548.684 1190.01C535.251 1178.8 522.035 1167.76 514.474 1154.62C507.274 1142.12 507.771 1130.32 511.688 1120.11C504.801 1128.6 494.824 1134.93 480.382 1134.96C465.214 1134.98 449.041 1129.07 432.602 1123.05C405.262 1113.05 377.189 1102.78 351.786 1119.13L349.802 1117.15C366.177 1091.78 355.892 1063.74 345.876 1036.44C339.853 1020.02 333.928 1003.87 333.954 988.723C333.979 974.296 340.319 964.33 348.825 957.452C338.605 961.367 326.789 961.865 314.26 954.673C301.106 947.122 290.055 933.923 278.824 920.508C260.145 898.197 240.964 875.287 210.767 876.76L210.04 874.054C236.93 860.271 242.055 830.865 247.047 802.228C250.048 785.009 253.001 768.068 260.608 754.968C267.851 742.495 278.331 737.034 289.142 735.326C278.329 733.61 267.845 728.141 260.592 715.662C252.976 702.557 250.01 685.614 246.995 668.393C241.982 639.752 236.834 610.343 209.935 596.539L211.233 591.695C241.43 593.19 260.593 570.294 279.255 547.998C290.476 534.591 301.516 521.401 314.665 513.86C327.186 506.679 338.999 507.185 349.221 511.105C340.713 504.22 334.368 494.251 334.332 479.828C334.294 464.68 340.207 448.532 346.217 432.119C356.213 404.823 366.477 376.794 350.081 351.413L352.064 349.433C377.479 365.807 405.545 355.556 432.877 345.574C449.311 339.572 465.481 333.666 480.648 333.704C495.095 333.74 505.078 340.08 511.972 348.58C508.045 338.37 507.537 326.57 514.728 314.063C522.279 300.932 535.487 289.906 548.912 278.7C571.238 260.063 594.163 240.925 592.666 210.767L595.375 210.043C609.197 236.907 638.646 242.048 667.324 247.055C684.568 250.066 701.534 253.028 714.656 260.634C727.151 267.877 732.627 278.346 734.346 289.143C736.056 278.347 741.525 267.882 754.014 260.648C767.13 253.052 784.094 250.103 801.336 247.105ZM621.082 1157.78C854.805 1219.03 1094.3 1080.77 1157.63 847.877C1219.23 614.523 1080.95 375.041 847.917 311.221C614.195 249.974 374.695 388.23 311.371 621.123C249.765 854.476 388.05 1093.96 621.082 1157.78Z" fill="url(#paint1_radial)"></path> </g> <defs> <radialGradient id="paint0_radial" cx="0" cy="0" r="1" gradientUnits="userSpaceOnUse" gradientTransform="translate(1703 258) rotate(164.211) scale(1958.91)"> <stop stop-color="#6CA3F2" stop-opacity="0.26"></stop> <stop offset="1" stop-color="#E8EFFA" stop-opacity="0.47"></stop> </radialGradient> <radialGradient id="paint1_radial" cx="0" cy="0" r="1" gradientUnits="userSpaceOnUse" gradientTransform="translate(1110 449) rotate(143.426) scale(1976.13)"> <stop stop-color="#FDF2F9" stop-opacity="0.31"></stop> <stop offset="1" stop-color="#FFA7D9" stop-opacity="0.72"></stop> </radialGradient> </defs> </svg> 