<?xml version="1.0" standalone="no"?>
<!DOCTYPE svg PUBLIC "-//W3C//DTD SVG 20010904//EN"
 "http://www.w3.org/TR/2001/REC-SVG-20010904/DTD/svg10.dtd">
<svg version="1.0" xmlns="http://www.w3.org/2000/svg"
 width="180.000000pt" height="180.000000pt" viewBox="0 0 180.000000 180.000000"
 preserveAspectRatio="xMidYMid meet">

<g transform="translate(0.000000,180.000000) scale(0.100000,-0.100000)"
fill="#000000" stroke="none">
<path d="M98 744 c-31 -16 -35 -29 -13 -38 23 -9 22 -352 -2 -378 -15 -17 -14
-18 37 -18 42 0 51 3 42 12 -8 8 -12 46 -12 103 0 99 12 125 57 125 28 0 33
-17 33 -122 0 -75 -3 -93 -17 -104 -16 -12 -10 -13 42 -13 52 0 58 1 43 13
-15 11 -18 30 -18 112 0 120 -11 144 -68 144 -20 0 -44 -5 -52 -10 -13 -8 -16
4 -20 87 -3 53 -9 98 -15 99 -5 2 -22 -4 -37 -12z"/>
<path d="M683 683 c-8 -3 -13 -24 -13 -53 0 -41 -3 -49 -22 -54 l-23 -7 23 -9
c21 -9 22 -15 22 -115 0 -59 5 -115 10 -126 12 -22 59 -26 78 -7 19 19 14 30
-10 26 -23 -3 -23 -1 -26 110 -3 107 -2 112 18 112 11 0 20 5 20 10 0 6 -9 10
-20 10 -18 0 -20 7 -20 55 0 55 -5 61 -37 48z"/>
<path d="M413 570 c-53 -22 -75 -146 -36 -212 43 -74 146 -78 200 -8 17 21 27
93 18 136 -3 21 -19 50 -35 66 -24 23 -37 28 -77 27 -26 0 -58 -4 -70 -9z
m120 -50 c25 -48 19 -142 -10 -172 -28 -27 -72 -27 -95 2 -27 34 -25 148 3
184 31 40 78 33 102 -14z"/>
</g>
</svg>
