<svg fill="#c19a6b" height="200px" width="200px" version="1.1" id="Layer_1" xmlns="http://www.w3.org/2000/svg" xmlns:xlink="http://www.w3.org/1999/xlink" viewBox="0 0 511.999 511.999" xml:space="preserve"><g id="SVGRepo_bgCarrier" stroke-width="0"></g><g id="SVGRepo_tracerCarrier" stroke-linecap="round" stroke-linejoin="round"></g><g id="SVGRepo_iconCarrier"> <g> <g> <path d="M463.514,235.076c-21.886-36.083-49.959-52.365-85.807-49.794c-30.373,2.181-52.193,13.9-66.704,35.826 c-5.063,7.65-9.655,15.635-14.096,23.358c-3.477,6.047-7.073,12.3-10.807,18.224c-6.297,9.991-12.558,19.669-19.909,28.253 c-7.422,8.67-16.646,8.351-23.078,6.557c-4.68-1.306-9.349-3.078-14.169-5.032c11.126-8.387,18.231-19.249,22.882-27.338 c11.01-19.15,22.555-45.035,14.036-75.49c-10.439-37.327-36.906-58.991-74.525-61.001c-26.666-1.424-53.605,4.323-82.336,17.573 c-10.977,5.062-21.736,11.905-32.893,20.921c-6.432,5.199-8.068,14.501-3.805,21.637l22.864,38.267 c4.963,8.308,15.636,11.435,24.387,7.076c19.849-9.881,40.373-20.098,62.795-24.132c16.845-3.031,28.088,1.944,36.458,16.128 c1.513,2.565,1.576,5.696,0.162,8.175c-5.126,8.987-11.947,14.972-20.852,18.3c-11.552,4.317-24.3,5.626-40.116,4.118 c-4.799-0.457-9.577-0.863-14.459-1.274c-4.864-0.406-9.545,1.408-12.859,4.981c-3.313,3.572-4.771,8.377-4.001,13.186 c3.615,22.551,8.564,53.437,39.79,66.929c6.514,2.816,13.125,1.698,18.439,0.801c2.663-0.45,5.175-0.875,7.198-0.759 c15.061,0.863,24.497,5.426,30.594,14.795c7.576,11.639,9.59,25.742,5.527,38.692c-3.966,12.637-13.367,22.78-25.795,27.828 c-7.665,3.113-16.235,5.184-24.783,5.989c-29.187,2.749-55.18-3.087-77.249-17.344c-15.439-9.973-23.643-26.255-29.631-40.867 c-5.643-13.772-10.503-28.286-15.202-42.322c-2.26-6.754-4.599-13.738-7.021-20.631l-0.115-0.315 c-2.117-5.594-7.727-8.728-13.645-7.616c-5.888,1.104-9.963,6.032-9.909,12.025c0,0.021,0.001,0.094,0.001,0.115l0.04,2.724 c0.14,9.775,0.286,19.883,1.235,29.915c4.631,48.953,20.778,88.195,49.363,119.968c29.014,32.249,63.418,48.476,102.606,48.474 c10.307,0,20.952-1.124,31.909-3.379c22.066-4.531,40.828-18.041,57.36-41.305c24.823-34.93,28.73-74.684,11.945-121.533 c-0.585-1.633-1.252-3.324-2.034-5.167c-0.174-0.412-0.137-0.812,0.115-1.191c0.258-0.389,0.624-0.585,1.087-0.585 c0.002,0,0.004,0,0.005,0c19.626,0.061,24.301-0.039,26.066-0.246c15.545-1.83,28.41-9.782,38.234-23.637 c3.796-5.352,7.44-10.862,10.962-16.191c4.135-6.253,8.41-12.718,12.848-18.788c1.466-2.005,2.917-4.042,4.371-6.084 c6.086-8.551,11.836-16.627,18.94-22.77c7.33-6.341,16.714-8.607,25.743-6.218c9.431,2.496,16.794,9.441,20.2,19.056 c4.638,13.091,6.598,27.455,5.994,43.915c-1.265,34.442-21.523,63.125-52.867,74.857c-22.951,8.59-43.098,4.296-56.73-12.09 c-5.498-6.608-9.179-12.69-11.582-19.139c-1.822-4.885-6.537-7.919-11.762-7.536c-5.243,0.381-9.506,4.083-10.611,9.211 c-0.002,0.01-0.004,0.02-0.007,0.03l-0.022,0.102c-3.075,14.449-2.598,29.973,1.501,48.856c6.295,29,20.412,50.558,40.828,62.345 c20.448,11.805,45.784,13.395,73.275,4.595c25.527-8.173,44.521-27.522,58.066-59.156c8.044-18.785,12.789-40.004,14.507-64.871 C489.479,301.488,481.971,265.506,463.514,235.076z M469.952,343.942c-1.588,22.984-5.909,42.446-13.209,59.496 c-11.705,27.333-26.924,43.191-47.896,49.905c-22.922,7.34-43.651,6.244-59.948-3.164c-16.263-9.389-27.649-27.205-32.927-51.519 c-2.122-9.784-3.154-18.444-3.107-26.392c1.965,2.986,4.188,5.968,6.685,8.97c18.213,21.892,45.643,28.092,75.261,17.007 c37.721-14.118,62.094-48.51,63.61-89.755c0.681-18.585-1.586-34.956-6.934-50.051c-5.184-14.634-16.986-25.674-31.571-29.532 c-14.406-3.812-29.277-0.274-40.809,9.702c-8.606,7.443-15.21,16.719-21.597,25.688c-1.414,1.984-2.823,3.966-4.248,5.915 c-4.669,6.384-9.053,13.015-13.293,19.428c-3.45,5.218-7.017,10.613-10.656,15.745c-7.097,10.009-15.821,15.495-26.605,16.766 c-2.303,0.209-18.737,0.156-24.135,0.138c-6.038-0.017-11.606,2.965-14.938,7.982c-3.326,5.007-3.908,11.294-1.561,16.824 c0.657,1.547,1.209,2.947,1.685,4.277c14.824,41.378,11.6,76.168-9.854,106.359c-13.99,19.686-29.427,31.029-47.195,34.678 c-46.446,9.538-86.443-3.905-118.877-39.956c-26.124-29.037-40.905-65.167-45.189-110.455c-0.051-0.525-0.097-1.052-0.142-1.581 c3.984,11.814,8.168,23.836,12.957,35.522c6.556,15.996,16.568,35.964,35.966,48.495c25.27,16.324,54.807,23.027,87.785,19.92 c10.133-0.954,20.321-3.42,29.461-7.132c17.024-6.915,29.912-20.843,35.361-38.212c5.546-17.683,2.832-36.883-7.448-52.68 c-9.007-13.839-23.243-21.131-43.523-22.293c-3.882-0.222-7.61,0.408-10.901,0.964c-3.65,0.617-7.098,1.198-9.117,0.327 c-20.959-9.056-25.712-27.808-29.842-53.312c4.472,0.376,8.86,0.753,13.235,1.17c18.405,1.753,33.492,0.135,47.481-5.091 c12.509-4.673,22.412-13.288,29.437-25.605c4.35-7.626,4.241-17.125-0.285-24.793c-11.915-20.192-29.964-28.271-53.648-24.007 c-24.75,4.453-47.324,15.692-67.335,25.653c-0.965,0.478-2.151,0.13-2.703-0.794l-22.864-38.267 c-0.072-0.12-0.033-0.244-0.001-0.269c10.079-8.144,19.701-14.281,29.42-18.763c26.228-12.095,50.604-17.352,74.52-16.076 c30.403,1.625,50.967,18.544,59.464,48.928c5.425,19.396,1.703,38.171-12.445,62.779c-7.671,13.341-15.43,21.538-25.157,26.577 c-1.609,0.834-2.792,1.806-4.044,2.835c-0.509,0.418-1.095,0.901-1.816,1.454c-2.374,1.821-3.58,4.781-3.156,7.744 s2.416,5.463,5.206,6.544c3.151,1.221,6.265,2.508,9.276,3.752c7.043,2.911,13.695,5.66,20.879,7.664 c15.416,4.302,30.033,0.023,40.102-11.736c8.076-9.43,14.703-19.663,21.339-30.193c3.912-6.207,7.592-12.608,11.152-18.798 c4.313-7.501,8.774-15.257,13.549-22.474c11.646-17.597,28.831-26.636,54.084-28.45c29.872-2.149,51.601,10.766,70.466,41.868 C465.981,271.074,472.719,303.876,469.952,343.942z"></path> </g> </g> <g> <g> <path d="M449.283,106.18c-4.907-7.23-10.483-13.935-15.878-20.419c-1.464-1.759-2.927-3.519-4.376-5.287 c-5.139-6.27-8.533-10.411-14.221-11.235c-5.71-0.824-10.03,2.202-16.558,6.788l-1.078,0.756c-2.182,1.529-4.359,3.081-6.54,4.633 c-9.843,7.013-20.02,14.265-30.613,19.273c-31.698,14.984-60.057,11.325-86.699-11.188c-10.471-8.849-18.553-17.981-24.71-27.919 c-2.87-4.632-8.143-6.591-13.119-4.871c-5.797,2.003-9.449,8.457-8.684,15.348c3.692,33.232,19.444,60.929,46.818,82.322 c17.958,14.034,38.989,20.941,63.962,20.94c4.971,0,10.102-0.274,15.396-0.82c33.989-3.508,64.849-16.32,91.724-38.08 C456.966,126.496,458.079,119.148,449.283,106.18z M434.284,123.556c-24.679,19.983-51.831,31.261-83.005,34.478 c-27.78,2.867-49.216-2.439-67.461-16.697c-19.528-15.261-31.945-33.453-37.659-55.311c4.821,5.547,10.287,10.892,16.472,16.119 c31.224,26.387,67.348,31.055,104.461,13.511c11.924-5.638,22.712-13.324,33.145-20.757c2.146-1.529,4.288-3.055,6.435-4.559 l1.091-0.765c1.603-1.125,3.343-2.348,4.619-3.158c1.097,1.204,2.573,3.003,3.84,4.551c1.475,1.799,2.964,3.589,4.454,5.381 c5.376,6.462,10.453,12.565,14.904,19.125c1.663,2.453,2.386,3.796,2.699,4.5C437.745,120.581,436.625,121.661,434.284,123.556z"></path> </g> </g> <g> <g> <path d="M376.952,39.523L341.949,4.521c-6.03-6.027-15.838-6.03-21.868,0L285.08,39.523c-6.029,6.029-6.029,15.838,0,21.867 l35.001,35.001c3.014,3.015,6.973,4.522,10.934,4.522c3.959,0,7.918-1.508,10.935-4.522l35.002-35.001 C382.98,55.361,382.98,45.551,376.952,39.523z M331.015,83.911L297.56,50.456l33.455-33.455l33.456,33.455L331.015,83.911z"></path> </g> </g> </g></svg>