 <svg  version="1.0" xmlns="http://www.w3.org/2000/svg"  width="300.000000pt" height="260.000000pt" viewBox="0 0 300.000000 260.000000"  preserveAspectRatio="xMidYMid meet">  <g transform="translate(0.000000,260.000000) scale(0.050000,-0.050000)" fill="#000000" stroke="none"> <path d="M4267 4779 c-221 -142 -194 -427 68 -703 223 -236 276 -380 195 -536 -96 -185 -370 -74 -370 149 0 28 -9 51 -20 51 -12 0 -20 -67 -20 -160 0 -93 8 -160 20 -160 11 0 20 18 20 40 0 51 24 51 70 0 114 -126 355 -67 437 107 89 187 31 380 -178 595 -212 219 -265 353 -200 509 65 156 331 91 331 -80 0 -61 19 -111 42 -111 10 0 18 72 18 160 0 164 -8 184 -50 127 -22 -31 -29 -30 -85 10 -78 55 -194 56 -278 2z"/> <path d="M1020 4780 c0 -11 17 -20 38 -20 32 0 46 -30 81 -178 86 -367 241 -1101 241 -1141 0 -73 57 -46 71 34 7 41 40 192 73 335 91 391 134 588 156 715 29 159 54 217 100 229 75 20 40 46 -60 46 -55 0 -100 -9 -100 -20 0 -11 15 -20 32 -20 24 0 30 -13 22 -45 -44 -188 -126 -599 -156 -780 -26 -152 -47 -171 -67 -60 -17 95 -170 803 -184 850 -7 25 2 35 32 35 22 0 41 9 41 20 0 12 -67 20 -160 20 -93 0 -160 -8 -160 -20z"/> <path d="M1860 4781 c0 -12 18 -21 40 -21 40 0 40 -10 35 -654 l-5 -654 -50 -14 c-27 -8 -45 -15 -40 -17 32 -11 425 -16 505 -7 l95 11 0 139 c0 158 -42 184 -61 39 -16 -111 -52 -144 -176 -155 l-103 -10 0 331 c0 321 1 331 41 331 68 0 115 -36 129 -100 25 -114 50 -59 50 110 0 180 -21 219 -51 95 -17 -68 -26 -76 -94 -81 l-75 -6 0 321 0 321 108 0 c127 0 156 -26 171 -153 17 -136 51 -104 51 48 l0 135 -285 6 c-185 3 -285 -2 -285 -15z"/> <path d="M2540 4785 c0 -9 20 -24 45 -35 33 -15 46 -39 48 -88 2 -37 13 -73 25 -81 23 -14 422 -1084 422 -1131 0 -17 14 -30 30 -30 26 0 30 86 30 650 0 628 1 650 40 675 64 40 47 55 -60 55 -55 0 -100 -9 -100 -20 0 -11 18 -20 40 -20 38 0 40 -13 40 -327 0 -180 6 -385 13 -455 8 -86 6 -121 -8 -108 -19 19 -183 450 -299 785 l-50 145 -108 0 c-59 0 -108 -7 -108 -15z"/> <path d="M3300 4780 c0 -11 18 -20 40 -20 39 0 40 -13 40 -535 0 -593 9 -654 110 -742 149 -131 290 -123 393 22 46 64 47 75 53 640 5 546 8 577 45 600 63 40 46 55 -61 55 -55 0 -100 -9 -100 -20 0 -11 18 -20 40 -20 47 0 62 -989 18 -1148 -47 -170 -197 -225 -286 -106 -65 88 -78 1254 -13 1254 23 0 41 9 41 20 0 12 -67 20 -160 20 -93 0 -160 -8 -160 -20z"/> <path d="M2620 4011 c0 -509 -2 -530 -40 -551 -68 -36 -44 -60 60 -60 76 0 100 7 100 30 0 17 -18 30 -40 30 -39 0 -40 13 -40 540 0 347 -7 540 -20 540 -13 0 -20 -190 -20 -529z"/> <path d="M2140 2890 c-49 -59 31 -139 90 -90 38 32 38 49 -1 89 -40 39 -57 39 -89 1z"/> <path d="M2339 2888 c-36 -42 0 -98 63 -98 54 0 75 56 37 101 -31 38 -68 37 -100 -3z"/> <path d="M2541 2883 c-25 -48 17 -110 68 -100 56 11 84 67 52 105 -35 43 -95 40 -120 -5z"/> <path d="M2754 2908 c-28 -28 -13 -107 23 -127 53 -28 109 17 100 80 -7 49 -89 80 -123 47z"/> <path d="M2981 2891 c-29 -35 -11 -103 31 -119 43 -17 108 22 108 65 0 75 -92 111 -139 54z"/> <path d="M3222 2892 c-43 -51 -19 -102 48 -102 53 0 60 7 60 60 0 69 -65 94 -108 42z"/> <path d="M3420 2880 c-17 -32 -17 -50 1 -71 53 -64 169 -2 126 68 -32 51 -101 52 -127 3z"/> <path d="M3642 2892 c-33 -40 -9 -112 37 -112 54 0 93 56 68 97 -29 45 -75 51 -105 15z"/> <path d="M3851 2889 c-39 -40 -8 -109 48 -109 47 0 73 72 40 111 -31 37 -49 37 -88 -2z"/> <path d="M4068 2891 c-30 -23 -34 -36 -16 -65 31 -50 97 -46 104 6 9 62 -40 94 -88 59z"/> <path d="M922 2881 c-30 -18 -16 -81 18 -81 29 0 49 59 27 81 -10 10 -29 10 -45 0z"/> <path d="M1108 2871 c-15 -37 6 -71 44 -71 41 0 60 60 26 82 -40 25 -58 22 -70 -11z"/> <path d="M1312 2868 c-16 -42 2 -68 47 -68 45 0 66 47 35 78 -31 31 -68 27 -82 -10z"/> <path d="M1522 2872 c-38 -45 32 -106 74 -65 34 34 19 93 -23 93 -15 0 -39 -13 -51 -28z"/> <path d="M1733 2887 c-25 -26 -13 -83 21 -96 41 -15 89 38 72 81 -11 29 -69 38 -93 15z"/> <path d="M1927 2870 c-7 -18 1 -46 17 -62 40 -40 100 -14 92 40 -8 53 -90 70 -109 22z"/> <path d="M4273 2887 c-25 -26 -13 -88 20 -101 45 -17 95 50 64 87 -24 29 -62 35 -84 14z"/> <path d="M4467 2868 c-7 -17 0 -44 16 -60 39 -38 106 6 86 58 -17 43 -86 45 -102 2z"/> <path d="M4694 2887 c-34 -34 -14 -90 31 -83 29 4 45 20 45 46 0 39 -49 64 -76 37z"/> <path d="M4902 2882 c-38 -24 -11 -87 33 -78 19 4 35 24 35 45 0 44 -28 58 -68 33z"/> <path d="M491 2862 c-13 -22 38 -67 56 -48 7 7 13 25 13 39 0 30 -52 37 -69 9z"/> <path d="M704 2845 c4 -19 20 -35 36 -35 16 0 32 16 36 35 5 25 -6 35 -36 35 -30 0 -41 -10 -36 -35z"/> <path d="M5104 2845 c4 -19 20 -35 36 -35 16 0 32 16 36 35 5 25 -6 35 -36 35 -30 0 -41 -10 -36 -35z"/> <path d="M5309 2858 c-7 -12 -4 -31 8 -43 25 -25 90 18 72 47 -16 25 -64 22 -80 -4z"/> <path d="M5520 2851 c0 -16 7 -33 16 -38 26 -16 70 20 55 45 -19 32 -71 27 -71 -7z"/> <path d="M3228 2471 c-63 -162 117 -445 307 -483 96 -19 34 224 -89 348 -103 104 -206 168 -218 135z"/> <path d="M350 2174 c-173 -76 -187 -97 -90 -131 l61 -21 -6 -525 -5 -525 -50 -12 c-49 -12 -84 -79 -41 -81 27 -1 335 -1 361 0 42 2 18 61 -30 73 -84 21 -77 484 8 570 69 68 159 77 209 21 59 -65 40 -571 -22 -579 -28 -4 -45 -21 -45 -44 0 -38 312 -70 365 -37 32 20 1 77 -42 77 -52 0 -57 33 -49 300 13 399 -118 536 -384 400 -43 -22 -81 -40 -84 -40 -3 0 -7 132 -10 293 -7 328 -4 324 -146 261z"/> <path d="M3830 2121 c-185 -77 -396 -384 -640 -931 l-54 -120 -40 110 c-22 61 -47 125 -57 143 -73 140 -115 280 -88 288 16 5 43 14 61 19 85 27 5 56 -153 56 -177 0 -216 -24 -121 -72 51 -25 322 -596 322 -677 0 -189 -401 -579 -667 -648 -199 -52 -219 -155 -21 -107 442 106 643 343 1057 1248 172 375 319 571 449 600 51 11 63 23 58 57 -7 47 -45 60 -106 34z"/> <path d="M2280 1994 c-45 -23 -51 -38 -56 -170 l-6 -144 -59 0 c-46 0 -59 -9 -59 -40 0 -31 13 -40 59 -40 l58 0 7 -328 c5 -289 11 -333 44 -370 56 -61 210 -59 284 5 71 61 49 101 -46 84 -111 -21 -117 -6 -110 317 l6 292 79 0 c119 0 115 75 -4 84 l-83 6 4 165 c5 181 -7 195 -118 139z"/> <path d="M5022 1754 c-12 -12 -22 -34 -22 -48 0 -32 -53 -33 -136 -4 -178 62 -384 -93 -384 -287 0 -173 76 -272 310 -405 226 -130 292 -310 149 -412 -174 -126 -475 49 -331 192 43 44 41 90 -6 90 -68 0 -148 -117 -135 -197 42 -255 489 -295 634 -57 100 163 32 308 -222 476 -201 133 -299 236 -299 316 0 83 78 186 157 207 227 59 365 -201 183 -347 -100 -80 -102 -107 -8 -91 169 27 271 252 170 376 -39 46 -38 48 0 89 58 62 0 162 -60 102z"/> <path d="M1460 1685 c-238 -60 -357 -343 -251 -595 147 -352 683 -310 781 61 96 367 -162 627 -530 534z m266 -120 c94 -84 127 -340 61 -478 -84 -178 -308 -178 -388 0 -138 304 112 669 327 478z"/> <path d="M5410 1684 c-109 -46 -130 -61 -130 -95 0 -40 37 -36 130 11 148 76 267 30 273 -105 20 -401 -18 -540 -149 -551 -265 -23 -240 304 29 377 119 32 106 88 -16 70 -279 -42 -416 -303 -242 -463 93 -85 242 -97 332 -26 43 34 54 36 59 12 6 -30 147 -57 199 -39 40 15 29 45 -25 65 l-50 19 0 289 c0 337 -11 376 -118 431 -96 49 -184 51 -292 5z"/> <path d="M3764 1656 c-219 -106 -273 -470 -99 -669 263 -299 736 -70 689 334 -37 312 -314 469 -590 335z m303 -46 c203 -97 204 -553 2 -651 -214 -103 -420 103 -379 379 37 244 196 358 377 272z"/> </g> </svg> 